<?xml version="1.0" encoding="utf-8"?>
<!-- Generator: Adobe Illustrator 16.0.0, SVG Export Plug-In . SVG Version: 6.00 Build 0)  -->
<!DOCTYPE svg PUBLIC "-//W3C//DTD SVG 1.1//EN" "http://www.w3.org/Graphics/SVG/1.1/DTD/svg11.dtd">
<svg version="1.1" id="Layer_1" xmlns="http://www.w3.org/2000/svg" xmlns:xlink="http://www.w3.org/1999/xlink" x="0px" y="0px"
	 width="42.52px" height="42.52px" viewBox="0 0 42.52 42.52" enable-background="new 0 0 42.52 42.52" xml:space="preserve">
<g>
	<rect x="0" fill="#2B2C2B" width="42.52" height="42.52"/>
	<path fill="#B6B7B7" d="M10.794,33.186c-0.284,0-0.57-0.101-0.8-0.306c-0.494-0.441-0.535-1.2-0.094-1.694L29.102,9.734
		c0.441-0.493,1.199-0.536,1.693-0.094c0.494,0.441,0.537,1.201,0.094,1.694l-19.2,21.451
		C11.453,33.051,11.125,33.186,10.794,33.186z"/>
	<path fill="#B6B7B7" d="M31.725,33.186H10.795c-0.663,0-1.2-0.537-1.2-1.199c0-0.663,0.537-1.2,1.2-1.2h20.929
		c0.662,0,1.199,0.537,1.199,1.2C32.924,32.648,32.387,33.186,31.725,33.186z"/>
</g>
</svg>
