<?xml version="1.0" encoding="utf-8"?>
<!-- Generator: Adobe Illustrator 16.0.0, SVG Export Plug-In . SVG Version: 6.00 Build 0)  -->
<!DOCTYPE svg PUBLIC "-//W3C//DTD SVG 1.1//EN" "http://www.w3.org/Graphics/SVG/1.1/DTD/svg11.dtd">
<svg version="1.1" id="Layer_1" xmlns="http://www.w3.org/2000/svg" xmlns:xlink="http://www.w3.org/1999/xlink" x="0px" y="0px"
	 width="42.52px" height="42.52px" viewBox="0 0 42.52 42.52" enable-background="new 0 0 42.52 42.52" xml:space="preserve">
<g>
	<rect y="0" fill="#2B2C2B" width="42.52" height="42.52"/>
	<path fill="#B6B7B7" d="M33.378,18.382h-8.58V8.843c0-0.662-0.537-1.2-1.199-1.2H9.142c-0.663,0-1.2,0.538-1.2,1.2v14.094
		c0,0.662,0.537,1.199,1.2,1.199h8.58v9.539c0,0.662,0.537,1.201,1.199,1.201h14.457c0.663,0,1.2-0.539,1.2-1.201V19.583
		C34.578,18.919,34.041,18.382,33.378,18.382z M32.178,32.477H20.121v-8.34h3.478c0.662,0,1.199-0.537,1.199-1.199v-2.155h7.38
		V32.477z"/>
</g>
</svg>
