<?xml version="1.0" encoding="utf-8"?>
<!-- Generator: Adobe Illustrator 16.0.0, SVG Export Plug-In . SVG Version: 6.00 Build 0)  -->
<!DOCTYPE svg PUBLIC "-//W3C//DTD SVG 1.1//EN" "http://www.w3.org/Graphics/SVG/1.1/DTD/svg11.dtd">
<svg version="1.1" id="Layer_1" xmlns="http://www.w3.org/2000/svg" xmlns:xlink="http://www.w3.org/1999/xlink" x="0px" y="0px"
	 width="42.52px" height="42.52px" viewBox="0 0 42.52 42.52" enable-background="new 0 0 42.52 42.52" xml:space="preserve">
<g>
	<rect fill="#2B2C2B" width="42.52" height="42.52"/>
	<g>
		<path fill="#B6B7B7" d="M21.26,36.918c-8.633,0-15.656-7.025-15.656-15.658c0-8.634,7.023-15.657,15.656-15.657
			s15.656,7.023,15.656,15.657C36.916,29.893,29.893,36.918,21.26,36.918z M21.26,8.003c-7.311,0-13.256,5.946-13.256,13.257
			s5.945,13.258,13.256,13.258S34.518,28.57,34.518,21.26S28.57,8.003,21.26,8.003z"/>
		<path fill="#B6B7B7" d="M21.26,30.965c-5.35,0-9.703-4.354-9.703-9.705c0-5.351,4.354-9.704,9.703-9.704
			c5.352,0,9.705,4.354,9.705,9.704C30.965,26.611,26.611,30.965,21.26,30.965z M21.26,13.956c-4.027,0-7.305,3.275-7.305,7.304
			c0,4.027,3.277,7.305,7.305,7.305s7.305-3.277,7.305-7.305C28.564,17.231,25.287,13.956,21.26,13.956z"/>
		<path fill="#B6B7B7" d="M21.26,25.012c-2.068,0-3.75-1.684-3.75-3.752c0-2.069,1.682-3.752,3.75-3.752s3.752,1.683,3.752,3.752
			C25.012,23.328,23.328,25.012,21.26,25.012z M21.26,19.908c-0.744,0-1.352,0.605-1.352,1.352s0.607,1.352,1.352,1.352
			c0.746,0,1.352-0.605,1.352-1.352S22.006,19.908,21.26,19.908z"/>
	</g>
</g>
</svg>
