<?xml version="1.0" encoding="utf-8"?>
<!-- Generator: Adobe Illustrator 16.0.0, SVG Export Plug-In . SVG Version: 6.00 Build 0)  -->
<!DOCTYPE svg PUBLIC "-//W3C//DTD SVG 1.1//EN" "http://www.w3.org/Graphics/SVG/1.1/DTD/svg11.dtd">
<svg version="1.1" id="Layer_1" xmlns="http://www.w3.org/2000/svg" xmlns:xlink="http://www.w3.org/1999/xlink" x="0px" y="0px"
	 width="42.52px" height="42.52px" viewBox="0 0 42.52 42.52" enable-background="new 0 0 42.52 42.52" xml:space="preserve">
<g>
	<path fill="#B6B7B7" d="M29.777,32.598c-0.827,0-1.5-0.672-1.5-1.5c0-0.829,0.673-1.5,1.5-1.5c2.793,0,4.99-1.252,5.873-3.35
		c0.851-2.012,0.318-4.348-1.387-6.097c-1.059-1.088-2.666-1.6-4.412-1.397c-2.477,0.283-4.776,1.897-6.311,4.432
		c-2.586,4.273-8.089,6.842-12.807,5.974c-3.747-0.69-6.316-3.398-7.05-7.431c-0.811-4.458,0.797-8.352,4.299-10.416
		c3.374-1.987,7.806-1.813,10.535,0.42c0.643,0.523,0.736,1.47,0.212,2.11c-0.523,0.641-1.47,0.736-2.109,0.212
		c-1.764-1.441-4.821-1.51-7.113-0.158c-1.416,0.835-3.672,2.894-2.87,7.295c0.646,3.56,2.881,4.692,4.642,5.018
		c3.493,0.645,7.752-1.366,9.696-4.577c2.02-3.333,5.13-5.468,8.537-5.857c2.67-0.305,5.189,0.527,6.902,2.286
		c2.561,2.628,3.326,6.213,2.002,9.355C37.047,30.66,33.816,32.598,29.777,32.598z"/>
</g>
</svg>
