<?xml version="1.0" encoding="utf-8"?>
<!-- Generator: Adobe Illustrator 16.0.0, SVG Export Plug-In . SVG Version: 6.00 Build 0)  -->
<!DOCTYPE svg PUBLIC "-//W3C//DTD SVG 1.1//EN" "http://www.w3.org/Graphics/SVG/1.1/DTD/svg11.dtd">
<svg version="1.1" id="Layer_1" xmlns="http://www.w3.org/2000/svg" xmlns:xlink="http://www.w3.org/1999/xlink" x="0px" y="0px"
	 width="42.52px" height="42.52px" viewBox="0 0 42.52 42.52" enable-background="new 0 0 42.52 42.52" xml:space="preserve">
<g>
	<rect fill="#2B2C2B" width="42.52" height="42.52"/>
	<g>
		<path fill="#B6B7B7" d="M37.16,22.092L37.16,22.092l-30.4-0.008c-0.663,0-1.2-0.537-1.199-1.199c0-0.662,0.537-1.2,1.199-1.2l0,0
			l27.546,0.007l-3.973-4.059c-0.464-0.474-0.456-1.233,0.019-1.697c0.473-0.463,1.233-0.454,1.696,0.019l5.97,6.099
			c0.338,0.346,0.436,0.859,0.248,1.305S37.643,22.092,37.16,22.092z"/>
		<path fill="#B6B7B7" d="M31.19,28.189c-0.303,0-0.606-0.113-0.839-0.342c-0.475-0.465-0.482-1.223-0.019-1.697l3.972-4.059
			L6.76,22.1l0,0c-0.662,0-1.199-0.537-1.199-1.199c-0.001-0.664,0.536-1.2,1.199-1.2l30.4-0.009l0,0
			c0.482,0,0.918,0.29,1.105,0.734c0.188,0.445,0.09,0.959-0.248,1.305l-5.97,6.1C31.813,28.068,31.502,28.189,31.19,28.189z"/>
	</g>
	<g>
		<path fill="#B6B7B7" d="M37.16,22.092L37.16,22.092l-30.4-0.008c-0.663,0-1.2-0.537-1.199-1.199c0-0.662,0.537-1.2,1.199-1.2l0,0
			l23.229,0.007c0,0-0.003-4.604,0-4.91c0.004-0.308,0.125-0.614,0.362-0.846c0.473-0.463,1.233-0.454,1.696,0.019l5.97,6.099
			c0.338,0.346,0.436,0.859,0.248,1.305S37.643,22.092,37.16,22.092z"/>
		<path fill="#B6B7B7" d="M31.19,28.189c-0.303,0-0.606-0.113-0.839-0.342c-0.233-0.229-0.354-0.529-0.362-0.831
			c-0.007-0.312,0-4.925,0-4.925L6.76,22.1l0,0c-0.662,0-1.199-0.537-1.199-1.199c-0.001-0.664,0.536-1.2,1.199-1.2l30.4-0.009l0,0
			c0.482,0,0.918,0.29,1.105,0.734c0.188,0.445,0.09,0.959-0.248,1.305l-5.97,6.1C31.813,28.068,31.502,28.189,31.19,28.189z"/>
	</g>
</g>
</svg>
