<?xml version="1.0" encoding="utf-8"?>
<!-- Generator: Adobe Illustrator 16.0.0, SVG Export Plug-In . SVG Version: 6.00 Build 0)  -->
<!DOCTYPE svg PUBLIC "-//W3C//DTD SVG 1.1//EN" "http://www.w3.org/Graphics/SVG/1.1/DTD/svg11.dtd">
<svg version="1.1" id="Layer_1" xmlns="http://www.w3.org/2000/svg" xmlns:xlink="http://www.w3.org/1999/xlink" x="0px" y="0px"
	 width="42.52px" height="42.52px" viewBox="0 0 42.52 42.52" enable-background="new 0 0 42.52 42.52" xml:space="preserve">
<rect x="0" y="0" fill="#2B2B2B" width="42.52" height="42.52"/>
<g>
	<g>
		<path fill="#B6B7B6" d="M22.46,6.06L22.46,6.06l-0.008,30.4c0,0.663-0.536,1.2-1.199,1.199c-0.662,0-1.2-0.537-1.2-1.199l0,0
			L20.06,8.914l-4.059,3.973c-0.474,0.464-1.233,0.456-1.697-0.019c-0.463-0.473-0.454-1.233,0.019-1.696l6.099-5.97
			c0.346-0.338,0.859-0.436,1.305-0.248S22.46,5.577,22.46,6.06z"/>
		<path fill="#B6B7B6" d="M28.558,12.03c0,0.303-0.113,0.606-0.342,0.839c-0.465,0.475-1.223,0.482-1.697,0.019L22.46,8.915
			l0.008,27.545l0,0c0,0.662-0.537,1.199-1.199,1.199c-0.663,0.001-1.2-0.536-1.2-1.199L20.06,6.06l0,0
			c0-0.482,0.29-0.918,0.735-1.105s0.959-0.09,1.305,0.248l6.099,5.97C28.437,11.407,28.558,11.718,28.558,12.03z"/>
	</g>
	<g>
		<path fill="#B6B7B6" d="M22.46,6.06L22.46,6.06l-0.008,30.4c0,0.663-0.536,1.2-1.199,1.199c-0.662,0-1.2-0.537-1.2-1.199l0,0
			l0.007-23.229c0,0-4.604,0.003-4.91,0c-0.308-0.004-0.614-0.125-0.846-0.362c-0.463-0.473-0.454-1.233,0.019-1.696l6.099-5.97
			c0.346-0.338,0.859-0.436,1.305-0.248S22.46,5.577,22.46,6.06z"/>
		<path fill="#B6B7B6" d="M28.558,12.03c0,0.303-0.113,0.606-0.342,0.839c-0.229,0.233-0.529,0.354-0.831,0.362
			c-0.312,0.007-4.925,0-4.925,0l0.008,23.229l0,0c0,0.662-0.537,1.199-1.199,1.199c-0.663,0.001-1.2-0.536-1.2-1.199L20.06,6.06
			l0,0c0-0.482,0.29-0.918,0.735-1.105s0.959-0.09,1.305,0.248l6.099,5.97C28.437,11.407,28.558,11.718,28.558,12.03z"/>
	</g>
</g>
</svg>
