<?xml version="1.0" encoding="utf-8"?>
<!-- Generator: Adobe Illustrator 16.0.0, SVG Export Plug-In . SVG Version: 6.00 Build 0)  -->
<!DOCTYPE svg PUBLIC "-//W3C//DTD SVG 1.1//EN" "http://www.w3.org/Graphics/SVG/1.1/DTD/svg11.dtd">
<svg version="1.1" id="Layer_1" xmlns="http://www.w3.org/2000/svg" xmlns:xlink="http://www.w3.org/1999/xlink" x="0px" y="0px"
	 width="42.52px" height="42.52px" viewBox="0 0 42.52 42.52" enable-background="new 0 0 42.52 42.52" xml:space="preserve">
<rect fill="#2B2C2B" width="42.52" height="42.52"/>
<g>
	<g>
		<path fill="#B6B7B7" d="M15.642,32.276c-0.662,0-1.2-0.537-1.2-1.199V11.444c0-0.662,0.538-1.201,1.2-1.201s1.2,0.539,1.2,1.201
			v19.633C16.842,31.739,16.304,32.276,15.642,32.276z"/>
	</g>
	<g>
		<path fill="#B6B7B7" d="M26.877,32.276c-0.662,0-1.199-0.537-1.199-1.199V11.444c0-0.662,0.537-1.201,1.199-1.201
			c0.664,0,1.201,0.539,1.201,1.201v19.633C28.078,31.739,27.541,32.276,26.877,32.276z"/>
	</g>
</g>
</svg>
