<?xml version="1.0" encoding="utf-8"?>
<!-- Generator: Adobe Illustrator 16.0.0, SVG Export Plug-In . SVG Version: 6.00 Build 0)  -->
<!DOCTYPE svg PUBLIC "-//W3C//DTD SVG 1.1//EN" "http://www.w3.org/Graphics/SVG/1.1/DTD/svg11.dtd">
<svg version="1.1" id="Layer_1" xmlns="http://www.w3.org/2000/svg" xmlns:xlink="http://www.w3.org/1999/xlink" x="0px" y="0px"
	 width="42.52px" height="42.52px" viewBox="0 0 42.52 42.52" enable-background="new 0 0 42.52 42.52" xml:space="preserve">
<g>
	<rect x="0" fill="#2B2C2B" width="42.52" height="42.52"/>
	<path fill="none" stroke="#B6B7B7" stroke-width="4" stroke-linecap="round" stroke-linejoin="round" stroke-miterlimit="10" d="
		M31.311,22.406"/>
	<g>
		<path fill="#B6B7B7" d="M11.21,31.977c-0.663,0-1.2-0.537-1.2-1.199V11.145c0-0.664,0.537-1.201,1.2-1.201
			c0.662,0,1.199,0.537,1.199,1.201v19.633C12.41,31.439,11.873,31.977,11.21,31.977z"/>
		<path fill="#B6B7B7" d="M11.211,32.576c-0.442,0-0.867-0.244-1.076-0.668c-0.295-0.594-0.052-1.313,0.542-1.607l20.1-9.953
			c0.594-0.297,1.314-0.051,1.607,0.543c0.295,0.594,0.051,1.313-0.543,1.607l-20.099,9.953
			C11.572,32.537,11.39,32.576,11.211,32.576z"/>
		<path fill="#B6B7B7" d="M31.309,22.299c-0.178,0-0.359-0.041-0.531-0.125l-20.1-9.955c-0.594-0.293-0.837-1.014-0.542-1.607
			c0.294-0.594,1.014-0.838,1.607-0.543l20.099,9.955c0.594,0.293,0.838,1.014,0.543,1.607
			C32.176,22.053,31.75,22.299,31.309,22.299z"/>
	</g>
</g>
</svg>
