<?xml version="1.0" encoding="utf-8"?>
<!-- Generator: Adobe Illustrator 16.0.0, SVG Export Plug-In . SVG Version: 6.00 Build 0)  -->
<!DOCTYPE svg PUBLIC "-//W3C//DTD SVG 1.1//EN" "http://www.w3.org/Graphics/SVG/1.1/DTD/svg11.dtd">
<svg version="1.1" id="Layer_1" xmlns="http://www.w3.org/2000/svg" xmlns:xlink="http://www.w3.org/1999/xlink" x="0px" y="0px"
	 width="42.52px" height="42.52px" viewBox="0 0 42.52 42.52" enable-background="new 0 0 42.52 42.52" xml:space="preserve">
<g>
	<g>
		<rect x="0" fill="#2B2C2B" width="42.52" height="42.52"/>
		<g>
			<g>
				<path fill="#B6B7B7" d="M32.387,17.611c-0.082,0-0.166-0.009-0.25-0.026c-0.646-0.137-1.063-0.773-0.926-1.422l1.246-5.902
					c0.135-0.648,0.77-1.063,1.422-0.927c0.646,0.138,1.063,0.773,0.926,1.422l-1.246,5.903
					C33.441,17.224,32.941,17.611,32.387,17.611z"/>
				<path fill="#B6B7B7" d="M32.387,17.611c-0.059,0-0.117-0.004-0.178-0.013l-6.654-0.99c-0.654-0.098-1.107-0.708-1.01-1.363
					c0.098-0.656,0.713-1.106,1.363-1.011l6.654,0.989c0.654,0.099,1.107,0.709,1.01,1.364
					C33.482,17.184,32.971,17.611,32.387,17.611z"/>
			</g>
			<path fill="#B6B7B7" d="M21.077,34.613c-0.779,0-1.565-0.068-2.351-0.205c-7.249-1.277-12.108-8.213-10.833-15.462
				c0.618-3.512,2.567-6.573,5.487-8.619c2.92-2.047,6.462-2.834,9.973-2.215c3.605,0.634,6.826,2.752,8.84,5.81
				c0.363,0.554,0.211,1.298-0.344,1.662c-0.553,0.365-1.297,0.211-1.662-0.343c-1.674-2.545-4.25-4.237-7.25-4.765
				c-2.88-0.509-5.785,0.138-8.18,1.816s-3.994,4.188-4.501,7.069c-1.046,5.946,2.94,11.636,8.886,12.681
				c3.389,0.596,6.786-0.398,9.323-2.732c0.486-0.449,1.246-0.418,1.695,0.07c0.449,0.486,0.416,1.246-0.07,1.695
				C27.588,33.379,24.395,34.613,21.077,34.613z"/>
		</g>
	</g>
	<g>
		<path fill="#B6B7B7" d="M33.877,9.334c-0.324-0.068-0.646,0.001-0.902,0.168c-0.258,0.168-7.713,4.773-7.961,4.959
			c-0.246,0.184-0.422,0.459-0.469,0.785c-0.098,0.654,0.355,1.266,1.01,1.363l6.654,0.988c0.059,0.01,0.119,0.014,0.178,0.014
			c0.143,0,0.279-0.027,0.408-0.074c0.051-0.019,0.09-0.052,0.137-0.076c0.074-0.039,0.152-0.074,0.217-0.128
			c0.047-0.039,0.08-0.091,0.121-0.136c0.051-0.058,0.104-0.109,0.145-0.176c0.031-0.055,0.047-0.118,0.07-0.179
			c0.025-0.062,0.061-0.117,0.074-0.185l1.246-5.902C34.941,10.107,34.525,9.471,33.877,9.334z"/>
	</g>
</g>
</svg>
