<?xml version="1.0" encoding="utf-8"?>
<!-- Generator: Adobe Illustrator 16.0.0, SVG Export Plug-In . SVG Version: 6.00 Build 0)  -->
<!DOCTYPE svg PUBLIC "-//W3C//DTD SVG 1.1//EN" "http://www.w3.org/Graphics/SVG/1.1/DTD/svg11.dtd">
<svg version="1.1" id="Layer_1" xmlns="http://www.w3.org/2000/svg" xmlns:xlink="http://www.w3.org/1999/xlink" x="0px" y="0px"
	 width="14.17px" height="8.4px" viewBox="0 0 14.17 8.4" enable-background="new 0 0 14.17 8.4" xml:space="preserve">
<g>
	<path fill="#B6B7B7" d="M13.709,0.596c-0.339-0.373-0.799-0.568-1.265-0.583C11.999,0,2.147-0.007,1.692,0.014
		C1.236,0.038,0.791,0.231,0.46,0.596c-0.658,0.726-0.607,1.85,0.12,2.511l5.308,4.832c0.005,0.006,0.016,0.008,0.021,0.013
		C6.043,8.07,6.194,8.175,6.366,8.25c0.015,0.005,0.03,0.002,0.043,0.008C6.625,8.348,6.852,8.4,7.085,8.4
		c0.231,0,0.46-0.053,0.677-0.143C7.775,8.252,7.791,8.255,7.803,8.25c0.17-0.075,0.324-0.18,0.458-0.299
		c0.006-0.005,0.015-0.007,0.021-0.013l5.309-4.832C14.316,2.445,14.37,1.322,13.709,0.596z"/>
</g>
</svg>
