<?xml version="1.0" encoding="utf-8"?>
<!-- Generator: Adobe Illustrator 16.0.0, SVG Export Plug-In . SVG Version: 6.00 Build 0)  -->
<!DOCTYPE svg PUBLIC "-//W3C//DTD SVG 1.1//EN" "http://www.w3.org/Graphics/SVG/1.1/DTD/svg11.dtd">
<svg version="1.1" id="Layer_1" xmlns="http://www.w3.org/2000/svg" xmlns:xlink="http://www.w3.org/1999/xlink" x="0px" y="0px"
	 width="8.4px" height="14.17px" viewBox="0 0 8.4 14.17" enable-background="new 0 0 8.4 14.17" xml:space="preserve">
<g>
	<path fill="#B6B7B7" d="M0.596,0.461C0.223,0.8,0.027,1.26,0.013,1.726C0,2.171-0.007,12.022,0.014,12.479
		c0.023,0.455,0.217,0.9,0.582,1.231c0.726,0.658,1.85,0.607,2.511-0.12l4.832-5.308c0.006-0.005,0.008-0.016,0.013-0.021
		C8.07,8.127,8.175,7.976,8.25,7.804c0.005-0.015,0.002-0.03,0.008-0.043C8.348,7.545,8.4,7.318,8.4,7.085
		c0-0.231-0.053-0.46-0.143-0.677C8.252,6.395,8.255,6.379,8.25,6.367c-0.075-0.17-0.18-0.324-0.299-0.458
		C7.946,5.903,7.944,5.895,7.938,5.889L3.106,0.58C2.445-0.146,1.322-0.2,0.596,0.461z"/>
</g>
</svg>
