<?xml version="1.0" encoding="utf-8"?>
<!-- Generator: Adobe Illustrator 16.0.0, SVG Export Plug-In . SVG Version: 6.00 Build 0)  -->
<!DOCTYPE svg PUBLIC "-//W3C//DTD SVG 1.1//EN" "http://www.w3.org/Graphics/SVG/1.1/DTD/svg11.dtd">
<svg version="1.1" id="Layer_1" xmlns="http://www.w3.org/2000/svg" xmlns:xlink="http://www.w3.org/1999/xlink" x="0px" y="0px"
	 width="42.52px" height="42.52px" viewBox="0 0 42.52 42.52" enable-background="new 0 0 42.52 42.52" xml:space="preserve">
<g>
	<g>
		<rect x="-0.5" y="-0.5" fill="#2B2C2B" width="43.52" height="43.52"/>
		<path fill="#525252" d="M42.52,0v42.52H0V0H42.52 M43.52-1h-1H0h-1v1v42.52v1h1h42.52h1v-1V0V-1L43.52-1z"/>
	</g>
	<g>
		<path fill="#B6B7B7" d="M37.57,6.141c0-0.016-0.008-0.029-0.008-0.045c-0.002-0.062-0.016-0.121-0.029-0.182
			c-0.012-0.057-0.02-0.112-0.039-0.165c-0.006-0.017-0.006-0.033-0.012-0.049c-0.018-0.039-0.045-0.07-0.064-0.107
			c-0.027-0.053-0.055-0.104-0.09-0.152c-0.035-0.047-0.076-0.086-0.117-0.128c-0.041-0.04-0.08-0.081-0.127-0.115
			c-0.049-0.036-0.102-0.063-0.156-0.093c-0.035-0.019-0.066-0.046-0.104-0.062c-0.016-0.006-0.031-0.006-0.047-0.012
			c-0.055-0.021-0.113-0.03-0.172-0.042s-0.115-0.024-0.174-0.027c-0.018-0.001-0.031-0.008-0.049-0.008L27.85,4.862
			c-0.66-0.007-1.205,0.525-1.213,1.187c-0.004,0.332,0.129,0.634,0.342,0.854c0.215,0.219,3.473,3.472,3.473,3.472l-6.719,6.706
			c-0.469,0.469-0.422,1.366,0,1.696c0.422,0.331,1.238,0.479,1.707,0.012l6.709-6.716c0,0,3.258,3.267,3.482,3.481
			c0.221,0.208,0.518,0.335,0.844,0.331c0.326-0.002,0.621-0.136,0.836-0.351c0.221-0.22,0.354-0.525,0.352-0.86L37.57,6.141z"/>
		<path fill="#B6B7B7" d="M4.95,36.378c0,0.016,0.007,0.03,0.007,0.045c0.003,0.062,0.017,0.121,0.029,0.183
			c0.012,0.056,0.021,0.111,0.04,0.164c0.006,0.017,0.006,0.033,0.012,0.049c0.017,0.039,0.044,0.07,0.064,0.107
			c0.027,0.053,0.055,0.104,0.09,0.152c0.035,0.047,0.076,0.086,0.117,0.128c0.041,0.04,0.08,0.081,0.126,0.116
			c0.049,0.035,0.103,0.063,0.156,0.092c0.036,0.02,0.066,0.047,0.104,0.063c0.015,0.006,0.031,0.006,0.046,0.011
			c0.056,0.021,0.114,0.03,0.173,0.042s0.115,0.025,0.174,0.027c0.017,0.002,0.031,0.008,0.048,0.008l8.534,0.092
			c0.66,0.007,1.205-0.525,1.212-1.186c0.004-0.332-0.128-0.635-0.342-0.855c-0.215-0.219-3.472-3.472-3.472-3.472l6.719-6.706
			c0.469-0.469,0.422-1.365,0-1.696s-1.238-0.479-1.707-0.011l-6.71,6.715c0,0-3.257-3.266-3.481-3.481
			c-0.221-0.208-0.518-0.335-0.844-0.331c-0.326,0.002-0.622,0.137-0.836,0.351c-0.221,0.22-0.354,0.526-0.352,0.86L4.95,36.378z"/>
	</g>
</g>
</svg>
