<?xml version="1.0" encoding="utf-8"?>
<!-- Generator: Adobe Illustrator 16.0.0, SVG Export Plug-In . SVG Version: 6.00 Build 0)  -->
<!DOCTYPE svg PUBLIC "-//W3C//DTD SVG 1.1//EN" "http://www.w3.org/Graphics/SVG/1.1/DTD/svg11.dtd">
<svg version="1.1" id="Layer_1" xmlns="http://www.w3.org/2000/svg" xmlns:xlink="http://www.w3.org/1999/xlink" x="0px" y="0px"
	 width="42.52px" height="42.52px" viewBox="0 0 42.52 42.52" enable-background="new 0 0 42.52 42.52" xml:space="preserve">
<g>
	<rect fill="#2B2C2B" width="42.52" height="42.52"/>
	<g>
		<g>
			<path fill="#B6B7B7" d="M8.189,22.459H6.06c-0.663,0-1.2-0.537-1.2-1.2c0-0.662,0.537-1.199,1.2-1.199h2.13
				c0.662,0,1.199,0.537,1.199,1.199C9.389,21.922,8.852,22.459,8.189,22.459z"/>
			<path fill="#B6B7B7" d="M19.717,22.459h-5.371c-0.663,0-1.2-0.537-1.2-1.2c0-0.662,0.537-1.199,1.2-1.199h5.371
				c0.662,0,1.199,0.537,1.199,1.199C20.916,21.922,20.379,22.459,19.717,22.459z"/>
			<path fill="#B6B7B7" d="M36.459,22.459H26.231c-0.663,0-1.2-0.537-1.2-1.2c0-0.662,0.537-1.199,1.2-1.199h10.228
				c0.662,0,1.199,0.537,1.199,1.199C37.658,21.922,37.121,22.459,36.459,22.459z"/>
		</g>
		<g>
			<path fill="#B6B7B7" d="M8.189,14.552H6.06c-0.663,0-1.2-0.538-1.2-1.2c0-0.663,0.537-1.2,1.2-1.2h2.13
				c0.662,0,1.199,0.537,1.199,1.2C9.389,14.014,8.852,14.552,8.189,14.552z"/>
			<path fill="#B6B7B7" d="M19.717,14.552h-5.371c-0.663,0-1.2-0.538-1.2-1.2c0-0.663,0.537-1.2,1.2-1.2h5.371
				c0.662,0,1.199,0.537,1.199,1.2C20.916,14.014,20.379,14.552,19.717,14.552z"/>
			<path fill="#B6B7B7" d="M36.459,14.552H26.231c-0.663,0-1.2-0.538-1.2-1.2c0-0.663,0.537-1.2,1.2-1.2h10.228
				c0.662,0,1.199,0.537,1.199,1.2C37.658,14.014,37.121,14.552,36.459,14.552z"/>
		</g>
		<g>
			<path fill="#B6B7B7" d="M8.189,30.368H6.06c-0.663,0-1.2-0.537-1.2-1.2c0-0.662,0.537-1.2,1.2-1.2h2.13
				c0.662,0,1.199,0.538,1.199,1.2C9.389,29.831,8.852,30.368,8.189,30.368z"/>
			<path fill="#B6B7B7" d="M19.717,30.368h-5.371c-0.663,0-1.2-0.537-1.2-1.2c0-0.662,0.537-1.2,1.2-1.2h5.371
				c0.662,0,1.199,0.538,1.199,1.2C20.916,29.831,20.379,30.368,19.717,30.368z"/>
			<path fill="#B6B7B7" d="M36.459,30.368H26.231c-0.663,0-1.2-0.537-1.2-1.2c0-0.662,0.537-1.2,1.2-1.2h10.228
				c0.662,0,1.199,0.538,1.199,1.2C37.658,29.831,37.121,30.368,36.459,30.368z"/>
		</g>
	</g>
</g>
</svg>
