<?xml version="1.0" encoding="utf-8"?>
<!-- Generator: Adobe Illustrator 16.0.0, SVG Export Plug-In . SVG Version: 6.00 Build 0)  -->
<!DOCTYPE svg PUBLIC "-//W3C//DTD SVG 1.1//EN" "http://www.w3.org/Graphics/SVG/1.1/DTD/svg11.dtd">
<svg version="1.1" id="Layer_1" xmlns="http://www.w3.org/2000/svg" xmlns:xlink="http://www.w3.org/1999/xlink" x="0px" y="0px"
	 width="42.52px" height="42.52px" viewBox="0 0 42.52 42.52" enable-background="new 0 0 42.52 42.52" xml:space="preserve">
<g>
	<g>
		<rect x="0" fill="#2B2C2B" width="42.52" height="42.52"/>
		<g>
			<path fill="#B6B7B7" d="M35.338,29.902H7.182c-0.662,0-1.2-0.537-1.2-1.2c0-0.662,0.538-1.199,1.2-1.199h28.156
				c0.662,0,1.199,0.537,1.199,1.199C36.537,29.365,36,29.902,35.338,29.902z"/>
		</g>
	</g>
	<g>
		<path fill="#B6B7B7" d="M25.721,12.931c-0.252,0.229-0.385,0.539-0.393,0.854c-0.01,0.3,0.002,2.418,0.002,2.418l-5.077-0.001
			c-0.664,0-1.201,0.536-1.201,1.199c0,0.001,0,0.002,0,0.003c0,0,0,0.001,0,0.002c0,0,0,0,0,0.001c0,0.662,0.537,1.199,1.201,1.199
			l5.077-0.002c0,0-0.016,2.134-0.002,2.44c0.016,0.308,0.146,0.609,0.393,0.832c0.49,0.445,1.248,0.41,1.695-0.081l3.262-3.584
			c0.004-0.004,0.006-0.01,0.01-0.014c0.08-0.091,0.15-0.193,0.201-0.309c0.004-0.01,0.002-0.02,0.006-0.029
			c0.061-0.146,0.096-0.299,0.096-0.456s-0.035-0.311-0.096-0.457c-0.004-0.009-0.002-0.02-0.006-0.028
			c-0.051-0.115-0.121-0.218-0.201-0.309c-0.004-0.004-0.006-0.01-0.01-0.014l-3.262-3.585
			C26.969,12.521,26.211,12.484,25.721,12.931z"/>
	</g>
	<g>
		<path fill="#B6B7B7" d="M16.799,12.931c0.252,0.229,0.384,0.539,0.393,0.854c0.009,0.3-0.002,2.418-0.002,2.418l5.076-0.001
			c0.664,0,1.201,0.536,1.201,1.199c0,0.001,0,0.002,0,0.003c0,0,0,0.001,0,0.002c0,0,0,0,0,0.001c0,0.662-0.537,1.199-1.201,1.199
			l-5.076-0.002c0,0,0.016,2.134,0.001,2.44c-0.015,0.308-0.146,0.609-0.392,0.832c-0.49,0.445-1.249,0.41-1.695-0.081l-3.263-3.584
			c-0.004-0.004-0.005-0.01-0.009-0.014c-0.08-0.091-0.15-0.193-0.201-0.309c-0.004-0.01-0.002-0.02-0.006-0.029
			c-0.061-0.146-0.096-0.299-0.096-0.456s0.035-0.311,0.096-0.457c0.004-0.009,0.002-0.02,0.006-0.028
			c0.051-0.115,0.121-0.218,0.201-0.309c0.004-0.004,0.005-0.01,0.009-0.014l3.263-3.585C15.55,12.521,16.309,12.484,16.799,12.931z
			"/>
	</g>
</g>
</svg>
