<?xml version="1.0" encoding="utf-8"?>
<!-- Generator: Adobe Illustrator 16.0.0, SVG Export Plug-In . SVG Version: 6.00 Build 0)  -->
<!DOCTYPE svg PUBLIC "-//W3C//DTD SVG 1.1//EN" "http://www.w3.org/Graphics/SVG/1.1/DTD/svg11.dtd">
<svg version="1.1" id="Layer_1" xmlns="http://www.w3.org/2000/svg" xmlns:xlink="http://www.w3.org/1999/xlink" x="0px" y="0px"
	 width="42.52px" height="42.52px" viewBox="0 0 42.52 42.52" enable-background="new 0 0 42.52 42.52" xml:space="preserve">
<g>
	<rect x="0" y="0" fill="#2B2B2B" width="42.52" height="42.52"/>
	<g>
		<g>
			<path fill="#B6B7B6" d="M8.968,33.186c-0.285,0-0.571-0.101-0.8-0.306c-0.494-0.442-0.536-1.201-0.094-1.695l19.2-21.451
				c0.441-0.493,1.199-0.536,1.695-0.094c0.494,0.442,0.535,1.201,0.094,1.694L9.862,32.786C9.626,33.051,9.298,33.186,8.968,33.186
				z"/>
			<path fill="#B6B7B6" d="M29.897,33.186H8.968c-0.662,0-1.199-0.537-1.199-1.2c0-0.662,0.537-1.2,1.199-1.2h20.929
				c0.662,0,1.201,0.538,1.201,1.2C31.098,32.649,30.559,33.186,29.897,33.186z"/>
		</g>
		<g>
			<path fill="#B6B7B6" d="M24.233,26.585c-0.285,0-0.57-0.101-0.801-0.306c-0.494-0.441-0.535-1.2-0.094-1.694l8.551-9.552
				c0.439-0.493,1.199-0.536,1.693-0.094c0.494,0.441,0.535,1.2,0.094,1.694l-8.549,9.552C24.891,26.45,24.563,26.585,24.233,26.585
				z"/>
			<path fill="#B6B7B6" d="M33.553,26.585h-9.32c-0.662,0-1.199-0.537-1.199-1.199c0-0.663,0.537-1.2,1.199-1.2h9.32
				c0.662,0,1.199,0.537,1.199,1.2C34.752,26.048,34.215,26.585,33.553,26.585z"/>
		</g>
	</g>
</g>
</svg>
