<?xml version="1.0" encoding="utf-8"?>
<!-- Generator: Adobe Illustrator 16.0.0, SVG Export Plug-In . SVG Version: 6.00 Build 0)  -->
<!DOCTYPE svg PUBLIC "-//W3C//DTD SVG 1.1//EN" "http://www.w3.org/Graphics/SVG/1.1/DTD/svg11.dtd">
<svg version="1.1" id="Layer_1" xmlns="http://www.w3.org/2000/svg" xmlns:xlink="http://www.w3.org/1999/xlink" x="0px" y="0px"
	 width="42.52px" height="42.52px" viewBox="0 0 42.52 42.52" enable-background="new 0 0 42.52 42.52" xml:space="preserve">
<g>
	<rect x="0" y="0" fill="#2B2B2B" width="42.52" height="42.52"/>
	<g>
		<g>
			<path fill="#B6B7B6" d="M29.789,15.602L29.789,15.602L20.253,15.6c-0.663,0-1.199-0.537-1.199-1.201
				c0-0.662,0.537-1.199,1.199-1.199c0,0,0,0,0.001,0l6.821,0.002l-1.434-1.576c-0.445-0.49-0.41-1.25,0.08-1.695
				c0.49-0.447,1.25-0.409,1.695,0.08l3.262,3.585c0.32,0.352,0.402,0.858,0.209,1.292C30.696,15.323,30.266,15.602,29.789,15.602z"
				/>
			<path fill="#B6B7B6" d="M26.528,19.187c-0.287,0-0.576-0.103-0.807-0.313c-0.49-0.445-0.525-1.205-0.08-1.694l1.434-1.577
				l-6.821,0.002c-0.001,0-0.001,0-0.001,0c-0.662,0-1.199-0.538-1.199-1.2c0-0.663,0.536-1.2,1.199-1.2l9.537-0.002l0,0
				c0.477,0,0.906,0.28,1.098,0.715c0.193,0.434,0.111,0.94-0.209,1.292l-3.262,3.585C27.18,19.055,26.854,19.187,26.528,19.187z"/>
		</g>
		<g>
			<path fill="#B6B7B6" d="M12.729,15.602c-0.475,0-0.905-0.279-1.097-0.715c-0.192-0.434-0.11-0.941,0.209-1.292l3.263-3.585
				c0.446-0.49,1.205-0.526,1.695-0.08s0.526,1.205,0.08,1.695l-1.435,1.576l6.823-0.002l0,0c0.662,0,1.199,0.537,1.199,1.199
				c0,0.664-0.537,1.201-1.199,1.201L12.729,15.602C12.729,15.602,12.729,15.602,12.729,15.602z"/>
			<path fill="#B6B7B6" d="M15.993,19.187c-0.326,0-0.651-0.132-0.889-0.393l-3.263-3.585c-0.319-0.351-0.401-0.858-0.209-1.292
				c0.191-0.435,0.622-0.715,1.097-0.715c0,0,0,0,0.001,0l9.538,0.002c0.662,0,1.199,0.537,1.199,1.2c0,0.662-0.537,1.2-1.199,1.2
				l0,0l-6.823-0.002l1.435,1.577c0.446,0.489,0.41,1.248-0.08,1.694C16.57,19.084,16.281,19.187,15.993,19.187z"/>
		</g>
	</g>
	<path fill="#B6B7B6" d="M35.338,32.903H7.182c-0.662,0-1.2-0.537-1.2-1.2s0.538-1.2,1.2-1.2h28.156c0.662,0,1.199,0.537,1.199,1.2
		S36,32.903,35.338,32.903z"/>
	<path fill="#B6B7B6" d="M30.422,26.916H12.583c-0.663,0-1.2-0.537-1.2-1.2s0.537-1.2,1.2-1.2h17.839c0.662,0,1.199,0.537,1.199,1.2
		S31.084,26.916,30.422,26.916z"/>
</g>
</svg>
