<?xml version="1.0" encoding="utf-8"?>
<!-- Generator: Adobe Illustrator 16.0.0, SVG Export Plug-In . SVG Version: 6.00 Build 0)  -->
<!DOCTYPE svg PUBLIC "-//W3C//DTD SVG 1.1//EN" "http://www.w3.org/Graphics/SVG/1.1/DTD/svg11.dtd">
<svg version="1.1" id="Layer_1" xmlns="http://www.w3.org/2000/svg" xmlns:xlink="http://www.w3.org/1999/xlink" x="0px" y="0px"
	 width="42.52px" height="42.52px" viewBox="0 0 42.52 42.52" enable-background="new 0 0 42.52 42.52" xml:space="preserve">
<g>
	<rect x="0" fill="#2B2C2B" width="42.52" height="42.52"/>
	<g>
		<g>
			<path fill="#B6B7B7" d="M21.259,35.216c-7.695,0-13.956-6.261-13.956-13.955c0-7.695,6.261-13.956,13.956-13.956
				c7.696,0,13.956,6.261,13.956,13.956C35.215,28.955,28.955,35.216,21.259,35.216z M21.259,9.704
				c-6.372,0-11.556,5.185-11.556,11.557s5.184,11.556,11.556,11.556c6.372,0,11.555-5.184,11.555-11.556S27.631,9.704,21.259,9.704
				z"/>
		</g>
		<g>
			<path fill="#B6B7B7" d="M21.021,22.651c-0.013,0-0.025,0-0.038-0.001c-0.662-0.021-1.183-0.574-1.162-1.236l0.239-7.691
				c0.02-0.649,0.553-1.162,1.199-1.162c0.012,0,0.024,0,0.038,0c0.662,0.021,1.181,0.574,1.162,1.237l-0.238,7.691
				C22.199,22.138,21.667,22.651,21.021,22.651z"/>
			<path fill="#B6B7B7" d="M27.049,22.651H21.02c-0.662,0-1.199-0.537-1.199-1.2c0-0.662,0.537-1.2,1.199-1.2h6.029
				c0.664,0,1.201,0.538,1.201,1.2C28.25,22.114,27.713,22.651,27.049,22.651z"/>
		</g>
	</g>
</g>
</svg>
