<?xml version="1.0" encoding="utf-8"?>
<!-- Generator: Adobe Illustrator 16.0.0, SVG Export Plug-In . SVG Version: 6.00 Build 0)  -->
<!DOCTYPE svg PUBLIC "-//W3C//DTD SVG 1.1//EN" "http://www.w3.org/Graphics/SVG/1.1/DTD/svg11.dtd">
<svg version="1.1" id="Layer_1" xmlns="http://www.w3.org/2000/svg" xmlns:xlink="http://www.w3.org/1999/xlink" x="0px" y="0px"
	 width="42.52px" height="42.52px" viewBox="0 0 42.52 42.52" enable-background="new 0 0 42.52 42.52" xml:space="preserve">
<g>
	<g>
		<rect x="0" fill="#2B2C2B" width="42.52" height="42.52"/>
		<g>
			<path fill="#B6B7B7" d="M25.732,26.92c-0.229-0.252-0.539-0.384-0.854-0.393c-0.301-0.009-2.418,0.002-2.418,0.002v-5.076
				c0-0.664-0.536-1.201-1.199-1.201c-0.001,0-0.002,0-0.003,0c0,0-0.001,0-0.002,0h-0.001c-0.662,0-1.199,0.537-1.199,1.201
				l0.002,5.076c0,0-2.134-0.016-2.44-0.001c-0.308,0.015-0.609,0.146-0.832,0.392c-0.445,0.49-0.41,1.249,0.081,1.695l3.584,3.263
				c0.004,0.004,0.01,0.005,0.014,0.009c0.091,0.08,0.193,0.15,0.309,0.201c0.01,0.004,0.02,0.002,0.029,0.006
				c0.146,0.061,0.299,0.096,0.456,0.096s0.311-0.035,0.457-0.096c0.009-0.004,0.02-0.002,0.028-0.006
				c0.115-0.051,0.218-0.121,0.308-0.201c0.004-0.004,0.01-0.005,0.014-0.009l3.586-3.263C26.143,28.169,26.178,27.41,25.732,26.92z
				"/>
		</g>
		<path fill="#B6B7B7" d="M35.338,22.46H7.182c-0.662,0-1.2-0.537-1.2-1.2c0-0.662,0.538-1.2,1.2-1.2h28.156
			c0.662,0,1.199,0.538,1.199,1.2C36.537,21.923,36,22.46,35.338,22.46z"/>
	</g>
	<path fill="#B6B7B7" d="M25.732,15.599c-0.229,0.251-0.539,0.384-0.854,0.393C24.578,16,22.461,15.99,22.461,15.99v5.076
		c0,0.664-0.536,1.201-1.199,1.201c-0.001,0-0.002-0.001-0.003-0.001c0,0-0.001,0.001-0.002,0.001h-0.001
		c-0.662,0-1.199-0.537-1.199-1.201l0.002-5.076c0,0-2.134,0.015-2.44,0c-0.308-0.015-0.609-0.146-0.832-0.392
		c-0.445-0.49-0.41-1.249,0.081-1.695l3.584-3.263c0.004-0.004,0.01-0.005,0.014-0.008c0.091-0.081,0.193-0.151,0.309-0.202
		c0.01-0.004,0.02-0.002,0.029-0.006c0.146-0.06,0.299-0.095,0.456-0.095s0.311,0.036,0.457,0.096
		c0.009,0.003,0.02,0.002,0.028,0.006c0.115,0.051,0.218,0.121,0.308,0.202c0.004,0.003,0.01,0.004,0.014,0.008l3.586,3.263
		C26.143,14.35,26.178,15.108,25.732,15.599z"/>
</g>
</svg>
